<svg xmlns="http://www.w3.org/2000/svg" xmlns:xlink="http://www.w3.org/1999/xlink" width="100" height="100" viewBox="0 0 100 100"><g><g transform="translate(50 50) scale(0.69 0.69) rotate(0) translate(-50 -50)" style="fill:#cc4b37"><svg fill="#cc4b37" xmlns="http://www.w3.org/2000/svg" xmlns:xlink="http://www.w3.org/1999/xlink" version="1.1" x="0px" y="0px" viewBox="0 0 100 100" enable-background="new 0 0 100 100" xml:space="preserve"><g><path d="M47.702,16.891l4.671-6.123c1.208-1.604,0.887-3.882-0.716-5.089c-1.604-1.207-3.883-0.886-5.09,0.717l-5.509,7.219   c0.258,0.081,0.508,0.182,0.747,0.305L47.702,16.891z"></path><path d="M51.069,18.588c1.137,0.583,1.979,1.573,2.37,2.789c0.15,0.465,0.227,0.941,0.233,1.416l6.922-9.139   c1.207-1.604,0.887-3.882-0.716-5.089c-1.604-1.207-3.883-0.886-5.09,0.717l-6.131,8.093L51.069,18.588z"></path><path d="M60.237,15.896l-7.535,9.865c-1.206,1.603-0.887,3.882,0.719,5.089c0.653,0.493,1.421,0.731,2.182,0.731   c1.103,0,2.192-0.5,2.906-1.448l7.534-9.864c1.208-1.604,0.887-3.882-0.717-5.09c-0.654-0.493-1.422-0.731-2.183-0.731   C62.041,14.447,60.951,14.947,60.237,15.896z"></path><path d="M66.516,38.997c0.808-1.792,1.058-3.86,1.11-5.437l-0.437,0.585c-0.877,1.166-2.219,1.834-3.68,1.834   c-1.006,0-1.962-0.32-2.767-0.926c-0.981-0.74-1.617-1.817-1.79-3.036c-0.009-0.064-0.016-0.128-0.021-0.192   c-0.94,0.27-1.943,0.609-2.999,1.04c-1.202,0.491-2.247,1.032-3.152,1.585l-0.103-0.037c0,0,0-2.672-5.744-6.763   c-2.058-1.466-7.003-3.438-7.003-3.438l0.546-1.338l6.672,3.362c0.558,0.286,1.151,0.421,1.737,0.421   c1.385,0,2.721-0.757,3.396-2.074c0.96-1.874,0.22-4.171-1.654-5.132l-10.205-5.123c-0.562-0.288-1.166-0.425-1.761-0.425   c-1.391,0-2.734,0.75-3.372,2.079c-0.486,1.014-3.591,7.315-3.848,10.007c-0.07,0.732,0.16,2.226,0.426,2.912   c1.293,3.349,7.115,11.06,9.222,13.793l-13.13,27.586h15.438L30.44,94.824l36.224-35.53h-15.07l10.398-13.065   C63.447,44.531,65.086,42.169,66.516,38.997z"></path><path d="M69.958,22.808c-0.654-0.493-1.422-0.731-2.184-0.731c-1.103,0-2.191,0.5-2.905,1.449l-4.26,5.664   c-1.206,1.604-0.887,3.882,0.717,5.09c0.655,0.493,1.423,0.731,2.184,0.731c1.103,0,2.191-0.5,2.906-1.448l4.259-5.665   C71.882,26.294,71.562,24.016,69.958,22.808z"></path></g></svg></g></g></svg>