<svg xmlns="http://www.w3.org/2000/svg" xmlns:xlink="http://www.w3.org/1999/xlink" width="100" height="100" viewBox="0 0 100 100"><g><g transform="translate(50 50) scale(0.69 0.69) rotate(0) translate(-50 -50)" style="fill:#1779ba"><svg fill="#1779ba" xmlns="http://www.w3.org/2000/svg" xmlns:xlink="http://www.w3.org/1999/xlink" version="1.1" x="0px" y="0px" viewBox="0 0 100 100" enable-background="new 0 0 100 100" xml:space="preserve"><path d="M65.139,25.309c0-8.357-6.8-15.157-15.159-15.157c-8.357,0-15.156,6.8-15.156,15.157c0,4.946,2.574,8.615,6.843,14.694  c2.184,3.109,4.897,6.975,7.894,11.959c0.09,0.146,0.248,0.237,0.42,0.237s0.331-0.092,0.421-0.237  c2.997-4.984,5.709-8.85,7.894-11.959C62.564,33.924,65.139,30.255,65.139,25.309z M49.98,31.177c-3.238,0-5.867-2.628-5.867-5.867  c0-3.241,2.629-5.867,5.867-5.867c3.239,0,5.868,2.626,5.868,5.867C55.848,28.549,53.221,31.177,49.98,31.177z"></path><polygon points="28.598,80.436 49.003,89.504 49.003,58.174 36.517,54.016 "></polygon><polygon points="50.959,58.174 50.959,89.504 71.361,80.436 63.443,54.016 "></polygon><path d="M20.34,58.605c-0.244,0.08-0.447,0.26-0.565,0.488L5.103,88.43c-0.183,0.371-0.118,0.814,0.169,1.116  c0.286,0.298,0.729,0.386,1.104,0.218l20.056-8.916l8.085-26.971L20.34,58.605z"></path><path d="M94.75,88.216L80.2,59.096c-0.116-0.229-0.318-0.41-0.565-0.49l-14.191-4.729l8.08,26.967l20.063,8.92  c0.128,0.057,0.265,0.084,0.397,0.084c0.004,0,0.013,0,0.021,0C94.546,89.836,95,89.416,95,88.869  C95,88.617,94.906,88.389,94.75,88.216z"></path></svg></g></g></svg>