<svg xmlns="http://www.w3.org/2000/svg" xmlns:xlink="http://www.w3.org/1999/xlink" width="100" height="100" viewBox="0 0 100 100"><g><g transform="translate(50 50) scale(0.69 0.69) rotate(0) translate(-50 -50)" style="fill:#1779ba"><svg fill="#1779ba" xmlns="http://www.w3.org/2000/svg" xmlns:xlink="http://www.w3.org/1999/xlink" version="1.1" x="0px" y="0px" viewBox="0 0 144.083 144" enable-background="new 0 0 144.083 144" xml:space="preserve"><path d="M113.73,110.779L97.728,88.17c-0.563-0.793-1.476-1.266-2.449-1.266H75.042V68.75h19.254V58.478l-12.395-8.217v-7.806h6.986  V28.487H55.196v13.969h6.985v7.806l-12.395,8.217V68.75h19.255v18.155H48.804c-0.974,0-1.886,0.473-2.449,1.266l-16.002,22.609  c-0.648,0.916-0.731,2.117-0.216,3.113s1.543,1.621,2.665,1.621h78.479c1.121,0,2.149-0.625,2.664-1.621  C114.46,112.896,114.377,111.695,113.73,110.779z M38.601,109.514l11.755-16.609h18.685v8.305h6.001v-8.305h18.685l11.755,16.609  H38.601z"></path></svg></g></g></svg>