<svg xmlns="http://www.w3.org/2000/svg" xmlns:xlink="http://www.w3.org/1999/xlink" width="100" height="100" viewBox="0 0 100 100"><g><g transform="translate(50 50) scale(0.69 0.69) rotate(0) translate(-50 -50)" style="fill:#1779ba"><svg fill="#1779ba" xmlns="http://www.w3.org/2000/svg" xmlns:xlink="http://www.w3.org/1999/xlink" version="1.1" x="0px" y="0px" viewBox="0 0 100 100" style="enable-background:new 0 0 100 100;" xml:space="preserve"><path d="M30.7,66.2c1.2-0.9,2.3-1.8,3.3-2.9V75l-24,7.7V70.2c0.8,0,1.6,0,2.4,0c2.8,0,5.5-0.2,8.2-0.6C24,69.2,27.7,68.4,30.7,66.2z   M10,25l24-7.7v39.2c-1.7,2.9-3.4,4.8-5.6,6.5c-2.2,1.6-5,2.3-8.4,2.8c-3.2,0.5-6.6,0.6-10,0.5V25z M19.2,37.5l-2.6,2.6  c-0.8,0.8-0.8,2,0,2.8c0.4,0.4,0.9,0.6,1.4,0.6s1-0.2,1.4-0.6l2.6-2.6l2.6,2.6c0.4,0.4,0.9,0.6,1.4,0.6s1-0.2,1.4-0.6  c0.8-0.8,0.8-2,0-2.8l-2.6-2.6l2.6-2.6c0.8-0.8,0.8-2,0-2.8c-0.8-0.8-2-0.8-2.8,0L22,34.7l-2.6-2.6c-0.8-0.8-2-0.8-2.8,0  c-0.8,0.8-0.8,2,0,2.8L19.2,37.5z M66,25v33.5c4.3,3,8.2,4,11.5,3c7-2.3,10.3-12.4,12.5-19.2v-25L66,25z M78.7,65.2  c-3.9,1.3-8.2,0.6-12.7-2v19.6L90,75V53.5C87.6,58.7,84.1,63.4,78.7,65.2z M38,50.6c2.6-2.9,6.2-5,11.6-3.4  c4.6,1.4,8.3,4.5,11.8,7.5c0.2,0.2,0.4,0.4,0.6,0.5V25l-24-7.7V50.6z M48.4,51c-4.6-1.4-7.2,1.1-10.4,6.5V75l24,7.7V60.4  c-1.1-0.9-2.2-1.8-3.2-2.7C55.6,55,52.2,52.2,48.4,51z"></path></svg></g></g></svg>