<svg xmlns="http://www.w3.org/2000/svg" xmlns:xlink="http://www.w3.org/1999/xlink" width="100" height="100" viewBox="0 0 100 100"><g><g transform="translate(50 50) scale(0.69 0.69) rotate(0) translate(-50 -50)" style="fill:#cc4b37"><svg fill="#cc4b37" xmlns="http://www.w3.org/2000/svg" xmlns:xlink="http://www.w3.org/1999/xlink" version="1.1" x="0px" y="0px" viewBox="0 0 100 100" enable-background="new 0 0 100 100" xml:space="preserve"><path d="M50,4.944C25.117,4.944,4.944,25.117,4.944,50S25.117,95.056,50,95.056S95.056,74.883,95.056,50S74.883,4.944,50,4.944z   M50.237,90.809c-22.407,0-40.576-18.163-40.576-40.573c0-22.408,18.169-40.573,40.576-40.573c22.408,0,40.571,18.166,40.571,40.573  C90.809,72.646,72.646,90.809,50.237,90.809z M57.162,50.315c0,3.864-3.137,6.994-7.002,6.994c-3.866,0-6.999-3.129-6.999-6.994  c0-3.864,3.133-7,6.999-7C54.025,43.315,57.162,46.451,57.162,50.315z M31.837,18.392L44.81,40.88c0,0-5.347,2.517-5.347,9.28  H13.674C13.674,50.157,12.336,30.579,31.837,18.392z M86.834,49.8l-25.968,0.027c0,0,0.483-5.89-5.372-9.261l12.861-22.358  C68.361,18.211,85.993,26.816,86.834,49.8z M31.837,81.782L44.81,59.491c5.85,3.405,10.714,0.048,10.714,0.048l12.905,22.527  C48.086,92.79,31.837,81.782,31.837,81.782z"></path></svg></g></g></svg>